<svg width="25" height="16" viewBox="0 0 25 16" fill="none" xmlns="http://www.w3.org/2000/svg">
<g id="menu icon">
<path id="line" fill-rule="evenodd" clip-rule="evenodd" d="M0 1C0 0.723858 0.223858 0.5 0.5 0.5H24.5C24.7761 0.5 25 0.723858 25 1C25 1.27614 24.7761 1.5 24.5 1.5H0.5C0.223858 1.5 0 1.27614 0 1Z" fill="black"/>
<path id="line_2" fill-rule="evenodd" clip-rule="evenodd" d="M0 8C0 7.72386 0.223858 7.5 0.5 7.5H24.5C24.7761 7.5 25 7.72386 25 8C25 8.27614 24.7761 8.5 24.5 8.5H0.5C0.223858 8.5 0 8.27614 0 8Z" fill="black"/>
<path id="line_3" fill-rule="evenodd" clip-rule="evenodd" d="M0 15C0 14.7239 0.223858 14.5 0.5 14.5H24.5C24.7761 14.5 25 14.7239 25 15C25 15.2761 24.7761 15.5 24.5 15.5H0.5C0.223858 15.5 0 15.2761 0 15Z" fill="black"/>
</g>
</svg>
